<svg width="137" height="37" viewBox="0 0 137 37" fill="none" xmlns="http://www.w3.org/2000/svg">
<path d="M0.218126 28.7029C-1.69954 22.5891 9.48658 10.3982 15.7721 4.79401C18.8615 2.03941 25.3601 6.97743 15.7721 11.5627C10.6039 14.0343 5.28912 22.3927 7.67548 27.2836C10.0618 32.1746 22.1286 30.7408 26.6385 28.7029C31.9652 26.2959 34.309 37 22.3772 37C17.2591 37 2.56585 36.1877 0.218126 28.7029Z" fill="#71BC63"/>
<path d="M17.37 25.5368C16.3047 23.6809 18.968 15.0562 20.6726 14.5104C23.1229 13.9645 28.9158 19.6276 28.343 21.3882C27.7038 23.3534 18.4354 27.3927 17.37 25.5368Z" fill="#71BC63"/>
<path d="M39.2841 27L41.2159 15.3636H43.6761L42.0852 24.9716H47.0739L46.733 27H39.2841ZM48.3622 27L50.294 15.3636H58.1349L57.794 17.392H52.4134L51.9588 20.1648H56.9361L56.5952 22.1932H51.6179L51.1634 24.9716H56.5668L56.2259 27H48.3622ZM59.3068 17.392L59.6477 15.3636H69.2045L68.8636 17.392H65.3011L63.7102 27H61.2784L62.8693 17.392H59.3068ZM72.7614 15.3636L72.5625 16.5909C72.5057 16.9394 72.3788 17.2955 72.1818 17.6591C71.9886 18.0189 71.7538 18.3598 71.4773 18.6818C71.2008 19 70.9129 19.2708 70.6136 19.4943L69.6364 18.8636C69.875 18.5644 70.0966 18.233 70.3011 17.8693C70.5095 17.5057 70.6534 17.0833 70.733 16.6023L70.9432 15.3636H72.7614ZM80.179 18.7443C80.1979 18.2708 80.0597 17.9053 79.7642 17.6477C79.4725 17.3902 79.0313 17.2614 78.4403 17.2614C78.0388 17.2614 77.6903 17.3182 77.3949 17.4318C77.0994 17.5417 76.8627 17.6951 76.6847 17.892C76.5104 18.0852 76.4025 18.3087 76.3608 18.5625C76.3191 18.7708 76.3324 18.9527 76.4006 19.108C76.4725 19.2633 76.5843 19.3977 76.7358 19.5114C76.8911 19.6212 77.0748 19.7178 77.2869 19.8011C77.4991 19.8807 77.7244 19.9489 77.9631 20.0057L78.9631 20.2557C79.4517 20.3693 79.8911 20.5208 80.2812 20.7102C80.6752 20.8996 81.0047 21.1326 81.2699 21.4091C81.5388 21.6856 81.7282 22.0114 81.8381 22.3864C81.9479 22.7614 81.9631 23.1913 81.8835 23.6761C81.7623 24.3883 81.4801 25.0057 81.0369 25.5284C80.5938 26.0473 80.0123 26.4508 79.2926 26.7386C78.5729 27.0227 77.7396 27.1648 76.7926 27.1648C75.8532 27.1648 75.0597 27.0208 74.4119 26.733C73.7642 26.4451 73.2926 26.0189 72.9972 25.4545C72.7055 24.8864 72.6184 24.1837 72.7358 23.3466H75.1165C75.0748 23.7367 75.1316 24.0625 75.2869 24.3239C75.446 24.5814 75.6828 24.7765 75.9972 24.9091C76.3116 25.0379 76.6809 25.1023 77.1051 25.1023C77.5256 25.1023 77.8987 25.0417 78.2244 24.9205C78.554 24.7992 78.821 24.6307 79.0256 24.4148C79.2301 24.1989 79.3551 23.9508 79.4006 23.6705C79.446 23.4091 79.4062 23.1894 79.2812 23.0114C79.1562 22.8333 78.9555 22.6818 78.679 22.5568C78.4063 22.428 78.0672 22.3144 77.6619 22.2159L76.446 21.8977C75.5066 21.6591 74.7964 21.286 74.3153 20.7784C73.8343 20.2708 73.6619 19.5871 73.7983 18.7273C73.9195 18.0227 74.2131 17.4072 74.679 16.8807C75.1487 16.3504 75.7396 15.9394 76.4517 15.6477C77.1676 15.3523 77.9498 15.2045 78.7983 15.2045C79.6619 15.2045 80.3911 15.3542 80.9858 15.6534C81.5805 15.9489 82.0142 16.3617 82.2869 16.892C82.5597 17.4223 82.643 18.0398 82.5369 18.7443H80.179ZM86.6903 27L88.6222 15.3636H93.2131C94.0919 15.3636 94.8134 15.5322 95.3778 15.8693C95.946 16.2027 96.3438 16.6667 96.571 17.2614C96.8021 17.8523 96.8551 18.5341 96.7301 19.3068C96.6013 20.0833 96.321 20.767 95.8892 21.358C95.4612 21.9451 94.9044 22.4034 94.2188 22.733C93.5331 23.0625 92.7415 23.2273 91.8438 23.2273H88.9176L89.2415 21.2557H91.7699C92.2472 21.2557 92.6544 21.1742 92.9915 21.0114C93.3324 20.8447 93.6032 20.6155 93.804 20.3239C94.0047 20.0284 94.1354 19.6894 94.196 19.3068C94.2604 18.9167 94.2396 18.5777 94.1335 18.2898C94.0275 18.0019 93.8324 17.7784 93.5483 17.6193C93.268 17.4564 92.8911 17.375 92.4176 17.375H90.7585L89.1506 27H86.6903ZM97.0497 27L98.9815 15.3636H101.442L99.8509 24.9716H104.839L104.499 27H97.0497ZM108.43 27H105.794L111.743 15.3636H114.913L116.993 27H114.357L112.942 18.0227H112.851L108.43 27ZM109.033 22.4261H115.26L114.93 24.3466H108.703L109.033 22.4261ZM118.456 15.3636H121.212L123.036 20.375H123.161L126.632 15.3636H129.388L123.899 22.8864L123.212 27H120.768L121.456 22.8864L118.456 15.3636Z" fill="#62B553"/>
</svg>
