<svg width="275" height="262" viewBox="0 0 275 262" fill="none" xmlns="http://www.w3.org/2000/svg">
<path d="M63.0695 135.269C53.6668 105.256 108.515 45.4094 139.334 17.8979C154.482 4.37528 186.346 28.6165 139.334 51.1261C113.993 63.2594 87.9338 104.291 99.6346 128.301C111.335 152.311 170.501 145.273 192.615 135.269C218.733 123.453 230.225 176 171.72 176C146.625 176 74.5809 172.012 63.0695 135.269Z" fill="#71BC63"/>
<path d="M147.169 119.726C141.946 110.615 155.005 68.276 163.362 65.5963C175.377 62.9166 203.781 90.7171 200.972 99.3605C197.838 109.007 152.393 128.837 147.169 119.726Z" fill="#71BC63"/>
<path d="M3.85227 237L9.64773 202.091H17.0284L12.2557 230.915H27.2216L26.1989 237H3.85227ZM31.0866 237L36.8821 202.091H60.4048L59.3821 208.176H43.2401L41.8764 216.494H56.8082L55.7855 222.58H40.8537L39.4901 230.915H55.7003L54.6776 237H31.0866ZM63.9205 208.176L64.9432 202.091H93.6136L92.5909 208.176H81.9034L77.1307 237H69.8352L74.608 208.176H63.9205ZM104.284 202.091L103.688 205.773C103.517 206.818 103.136 207.886 102.545 208.977C101.966 210.057 101.261 211.08 100.432 212.045C99.6023 213 98.7386 213.812 97.8409 214.483L94.9091 212.591C95.625 211.693 96.2898 210.699 96.9034 209.608C97.5284 208.517 97.9602 207.25 98.1989 205.807L98.8295 202.091H104.284ZM126.537 212.233C126.594 210.812 126.179 209.716 125.293 208.943C124.418 208.17 123.094 207.784 121.321 207.784C120.116 207.784 119.071 207.955 118.185 208.295C117.298 208.625 116.588 209.085 116.054 209.676C115.531 210.256 115.207 210.926 115.082 211.688C114.957 212.312 114.997 212.858 115.202 213.324C115.418 213.79 115.753 214.193 116.207 214.534C116.673 214.864 117.224 215.153 117.861 215.403C118.497 215.642 119.173 215.847 119.889 216.017L122.889 216.767C124.355 217.108 125.673 217.562 126.844 218.131C128.026 218.699 129.014 219.398 129.81 220.227C130.616 221.057 131.185 222.034 131.514 223.159C131.844 224.284 131.889 225.574 131.651 227.028C131.287 229.165 130.44 231.017 129.111 232.585C127.781 234.142 126.037 235.352 123.878 236.216C121.719 237.068 119.219 237.494 116.378 237.494C113.56 237.494 111.179 237.062 109.236 236.199C107.293 235.335 105.878 234.057 104.991 232.364C104.116 230.659 103.855 228.551 104.207 226.04H111.349C111.224 227.21 111.395 228.187 111.861 228.972C112.338 229.744 113.048 230.33 113.991 230.727C114.935 231.114 116.043 231.307 117.315 231.307C118.577 231.307 119.696 231.125 120.673 230.761C121.662 230.398 122.463 229.892 123.077 229.244C123.69 228.597 124.065 227.852 124.202 227.011C124.338 226.227 124.219 225.568 123.844 225.034C123.469 224.5 122.866 224.045 122.037 223.67C121.219 223.284 120.202 222.943 118.986 222.648L115.338 221.693C112.52 220.977 110.389 219.858 108.946 218.335C107.503 216.812 106.986 214.761 107.395 212.182C107.759 210.068 108.639 208.222 110.037 206.642C111.446 205.051 113.219 203.818 115.355 202.943C117.503 202.057 119.849 201.614 122.395 201.614C124.986 201.614 127.173 202.062 128.957 202.96C130.741 203.847 132.043 205.085 132.861 206.676C133.679 208.267 133.929 210.119 133.611 212.233H126.537ZM146.071 237L151.866 202.091H165.639C168.276 202.091 170.44 202.597 172.134 203.608C173.838 204.608 175.031 206 175.713 207.784C176.406 209.557 176.565 211.602 176.19 213.92C175.804 216.25 174.963 218.301 173.668 220.074C172.384 221.835 170.713 223.21 168.656 224.199C166.599 225.187 164.224 225.682 161.531 225.682H152.753L153.724 219.767H161.31C162.741 219.767 163.963 219.523 164.974 219.034C165.997 218.534 166.81 217.847 167.412 216.972C168.014 216.085 168.406 215.068 168.588 213.92C168.781 212.75 168.719 211.733 168.401 210.869C168.082 210.006 167.497 209.335 166.645 208.858C165.804 208.369 164.673 208.125 163.253 208.125H158.276L153.452 237H146.071ZM177.149 237L182.945 202.091H190.325L185.553 230.915H200.518L199.496 237H177.149ZM211.291 237H203.382L221.229 202.091H230.74L236.979 237H229.07L224.825 210.068H224.553L211.291 237ZM213.098 223.278H231.78L230.791 229.04H212.109L213.098 223.278ZM241.368 202.091H249.635L255.107 217.125H255.482L265.896 202.091H274.163L257.697 224.659L255.635 237H248.305L250.368 224.659L241.368 202.091Z" fill="#62B553"/>
</svg>
